<svg width="172" height="171" fill="none" xmlns="http://www.w3.org/2000/svg"><path d="M92.369 168.301c-1.65-1.648-2.474-3.747-2.474-6.295s.825-4.647 2.474-6.296L118 130.078 41.554 53.632 15.922 79.264c-1.799 1.799-3.897 2.659-6.295 2.58-2.399-.071-4.497-1.006-6.296-2.805C1.532 77.24.633 75.103.633 72.626c0-2.47.9-4.604 2.698-6.403l6.296-6.296-6.296-6.295c-1.799-1.8-2.698-3.898-2.698-6.296s.9-4.497 2.698-6.295l12.816-12.816-6.52-6.521c-1.8-1.799-2.66-3.936-2.582-6.413.072-2.47 1.008-4.604 2.806-6.403 1.8-1.799 3.937-2.698 6.413-2.698 2.47 0 4.605.9 6.403 2.698l6.296 6.52 12.591-12.59c1.799-1.8 3.897-2.699 6.296-2.699 2.398 0 4.497.9 6.295 2.698l6.52 6.52 6.521-6.52C68.835 1.168 70.934.344 73.482.344s4.647.824 6.295 2.473c1.65 1.65 2.474 3.748 2.474 6.296s-.825 4.647-2.474 6.295L54.145 41.041l76.447 76.446 25.632-25.632c1.799-1.799 3.936-2.698 6.412-2.698 2.471 0 4.605.9 6.404 2.698 1.799 1.799 2.698 3.933 2.698 6.403 0 2.477-.899 4.614-2.698 6.413l-6.521 6.52 6.296 6.296c1.799 1.799 2.698 3.897 2.698 6.296 0 2.398-.899 4.496-2.698 6.295l-12.816 12.816 6.52 6.521c1.799 1.798 2.699 3.897 2.699 6.295s-.9 4.497-2.699 6.296c-1.798 1.799-3.933 2.698-6.403 2.698-2.476 0-4.614-.899-6.413-2.698l-6.52-6.296-12.591 12.591c-1.799 1.799-3.897 2.698-6.296 2.698-2.398 0-4.497-.899-6.295-2.698l-6.521-6.52-6.52 6.52c-1.649 1.649-3.748 2.474-6.296 2.474s-4.647-.825-6.295-2.474Z" fill="url(#a)"/><defs><linearGradient id="a" x1="86.185" y1=".119" x2="86.185" y2="170.999" gradientUnits="userSpaceOnUse"><stop stop-color="#fff"/><stop offset="0" stop-color="#FFA761"/><stop offset="1" stop-color="#C7825B"/></linearGradient></defs></svg>