<svg width="175" height="159" fill="none" xmlns="http://www.w3.org/2000/svg"><path d="M68.411 158.129H30.48c-2.687 0-4.94-.91-6.761-2.731-1.815-1.814-2.722-4.065-2.722-6.752v-66.38H4.875c-2.213 0-3.714-1.028-4.505-3.083-.79-2.055-.316-3.793 1.423-5.216l79.183-71.36C82.715.87 84.848 0 87.377 0s4.663.87 6.401 2.608l31.531 28.449V15.884c0-2.687.911-4.94 2.731-6.761 1.815-1.815 4.065-2.722 6.752-2.722h9.483c2.687 0 4.938.907 6.752 2.722 1.821 1.82 2.731 4.074 2.731 6.761v40.777l19.203 17.306c1.739 1.423 2.213 3.162 1.423 5.216-.79 2.055-2.292 3.082-4.505 3.082h-16.121v66.381c0 2.687-.91 4.938-2.731 6.752-1.814 1.821-4.065 2.731-6.752 2.731h-37.932v-47.415c0-2.687-.907-4.94-2.721-6.761-1.821-1.815-4.075-2.722-6.762-2.722H77.894c-2.687 0-4.937.907-6.752 2.722-1.82 1.821-2.73 4.074-2.73 6.761v47.415Zm0-89.729h37.932c0-5.058-1.896-14.072-5.69-17.315-3.793-3.237-8.218-4.855-13.276-4.855-5.057 0-9.483 1.618-13.276 4.855-3.793 3.243-5.69 12.257-5.69 17.315Z" fill="url(#a)"/><defs><linearGradient id="a" x1="87.377" y1="0" x2="87.377" y2="158.129" gradientUnits="userSpaceOnUse"><stop stop-color="#FFA761"/><stop offset="1" stop-color="#C7825B"/></linearGradient></defs></svg>