<svg width="204" height="117" fill="none" xmlns="http://www.w3.org/2000/svg"><path d="M132.674 26.411c5.953 0 10.778-4.793 10.778-10.705C143.452 9.793 138.627 5 132.674 5c-5.952 0-10.778 4.793-10.778 10.706 0 5.912 4.826 10.705 10.778 10.705Z" stroke="url(#a)" stroke-width="9.663" stroke-linecap="round" stroke-linejoin="round"/><path d="M37.333 47.807 80.444 26.41l37.723 32.094L102 79.9M5 109.32a26.03 26.03 0 0 0 10.778 2.674 26.028 26.028 0 0 0 12.11-2.705 25.816 25.816 0 0 0 9.445-7.993 25.818 25.818 0 0 1 9.446-7.993 26.027 26.027 0 0 1 12.11-2.705 26.026 26.026 0 0 1 12.11 2.705 25.816 25.816 0 0 1 9.445 7.993 25.816 25.816 0 0 0 9.446 7.993 26.029 26.029 0 0 0 12.11 2.705 26.031 26.031 0 0 0 12.11-2.705 25.826 25.826 0 0 0 9.446-7.993 25.816 25.816 0 0 1 9.445-7.993 26.029 26.029 0 0 1 12.11-2.705 26.029 26.029 0 0 1 12.11 2.705 25.827 25.827 0 0 1 9.446 7.993 25.81 25.81 0 0 0 9.446 7.993 26.024 26.024 0 0 0 12.109 2.705A26.03 26.03 0 0 0 199 109.32" stroke="url(#b)" stroke-width="9.663" stroke-linecap="round" stroke-linejoin="round"/><defs><linearGradient id="a" x1="130.455" y1="-24.646" x2="161.279" y2="44.658" gradientUnits="userSpaceOnUse"><stop stop-color="#FFA761"/><stop offset="1" stop-color="#C7825B"/></linearGradient><linearGradient id="b" x1="82.029" y1="-92.096" x2="145.118" y2="227.277" gradientUnits="userSpaceOnUse"><stop stop-color="#FFA761"/><stop offset="1" stop-color="#C7825B"/></linearGradient></defs></svg>