<svg width="169" height="168" fill="none" xmlns="http://www.w3.org/2000/svg"><path d="M108.088 112.893c-3.022-4.616-5.456-8.897-7.722-12.842-9.82-16.87-17.795-28.286-41.213-31.811V29.378C59.153 13.177 45.975 0 29.776 0 13.576 0 .398 13.178.398 29.378V167.87h16.788v-16.787h25.18v16.787h16.787V85.279c14.773 2.853 19.222 10.324 26.608 23.166 2.434 4.281 5.12 8.813 8.394 13.765 17.67 26.506 35.489 43.522 67.741 45.473 3.514.213 6.374-2.665 6.374-6.186v-4.039c0-3.52-2.867-6.341-6.377-6.604-24.961-1.87-38.523-15.076-53.805-37.961ZM29.776 16.787c6.967 0 12.59 5.624 12.59 12.59V67.15h-25.18V29.377c0-6.966 5.623-12.59 12.59-12.59Zm-12.59 117.51V117.51h25.18v16.787h-25.18Zm25.18-33.574h-25.18V83.936h25.18v16.787Z" fill="url(#a)"/><defs><linearGradient id="a" x1="84.334" y1="0" x2="84.334" y2="167.871" gradientUnits="userSpaceOnUse"><stop stop-color="#FFA761"/><stop offset="1" stop-color="#C7825B"/></linearGradient></defs></svg>