<svg width="168" height="156" fill="none" xmlns="http://www.w3.org/2000/svg"><path d="m47.093 89.679 24.865-24.866L17.57 10.514C13.353 6.297 6.06 7.44 3.425 12.887a35.286 35.286 0 0 0 6.853 40.065l36.814 36.727Zm59.571-15.904c13.443 6.239 32.333 1.846 46.303-12.125C169.749 44.87 173 20.794 160.084 7.878c-12.828-12.828-36.902-9.665-53.772 7.117-13.97 13.97-18.363 32.86-12.125 46.304l-79.604 79.604a8.76 8.76 0 1 0 12.389 12.388L81.359 99.08l54.299 54.299a8.752 8.752 0 0 0 6.195 2.566 8.765 8.765 0 0 0 8.093-5.408 8.765 8.765 0 0 0 0-6.704 8.757 8.757 0 0 0-1.899-2.842l-54.3-54.3 12.917-12.916Z" fill="url(#a)"/><defs><linearGradient id="a" x1="84" y1="0" x2="84" y2="155.945" gradientUnits="userSpaceOnUse"><stop stop-color="#fff"/><stop offset="0" stop-color="#FFA761"/><stop offset="1" stop-color="#C7825B"/><stop offset="1" stop-color="#C7825B"/></linearGradient></defs></svg>