<svg width="84" height="84" fill="none" xmlns="http://www.w3.org/2000/svg"><rect width="84" height="84" rx="42" fill="#fff"/><path d="M61.419 42.46c0-1.405-.11-2.81-.33-4.185H42.401v7.938h10.706c-.44 2.55-1.872 4.843-3.963 6.276v5.158h6.384c3.743-3.582 5.89-8.883 5.89-15.188Z" fill="#4285F4"/><path d="M42.403 62.633c5.339 0 9.851-1.834 13.126-4.986l-6.385-5.158c-1.788 1.26-4.072 1.977-6.741 1.977-5.174 0-9.55-3.639-11.119-8.51h-6.577v5.33c3.357 6.963 10.21 11.347 17.696 11.347Z" fill="#34A853"/><path d="M31.284 45.956a12.936 12.936 0 0 1 0-7.91v-5.301h-6.578a21.209 21.209 0 0 0 0 18.512l6.578-5.301Z" fill="#FBBC04"/><path d="M42.403 29.535c2.834-.057 5.559 1.06 7.595 3.095l5.67-5.903c-3.606-3.496-8.34-5.416-13.265-5.359-7.486 0-14.339 4.414-17.697 11.377l6.578 5.33c1.569-4.9 5.945-8.54 11.119-8.54Z" fill="#EA4335"/></svg>