<svg width="75" height="75" fill="none" xmlns="http://www.w3.org/2000/svg"><path d="M0 27.564C0 17.916 0 13.09 1.878 9.406a17.227 17.227 0 0 1 7.528-7.528C13.091 0 17.916 0 27.564 0h19.872c9.648 0 14.472 0 18.158 1.878a17.227 17.227 0 0 1 7.528 7.528C75 13.091 75 17.916 75 27.564v19.872c0 9.648 0 14.472-1.878 18.158a17.227 17.227 0 0 1-7.528 7.528C61.909 75 57.084 75 47.436 75H27.564c-9.648 0-14.473 0-18.158-1.878a17.227 17.227 0 0 1-7.528-7.528C0 61.909 0 57.084 0 47.436V27.564Z" fill="url(#a)"/><path fill-rule="evenodd" clip-rule="evenodd" d="M16.974 37.104c10.931-4.763 18.221-7.903 21.869-9.42C49.257 23.353 51.42 22.6 52.83 22.576c.31-.006 1.004.07 1.453.435.38.308.484.724.534 1.016.05.292.112.957.063 1.476-.565 5.93-3.007 20.32-4.249 26.96-.526 2.811-1.56 3.753-2.563 3.846-2.177.2-3.831-1.44-5.94-2.822-3.3-2.164-5.165-3.51-8.369-5.622-3.702-2.44-1.302-3.78.808-5.972.552-.574 10.147-9.301 10.333-10.093.023-.099.044-.468-.175-.663-.22-.195-.543-.128-.776-.075-.331.075-5.604 3.56-15.818 10.455-1.497 1.028-2.852 1.528-4.067 1.502-1.339-.029-3.914-.757-5.829-1.38-2.348-.763-4.215-1.166-4.052-2.463.084-.675 1.014-1.366 2.79-2.072Z" fill="#fff"/><defs><linearGradient id="a" x1="37.5" y1="0" x2="37.5" y2="75" gradientUnits="userSpaceOnUse"><stop stop-color="#2AABEE"/><stop offset="1" stop-color="#229ED9"/></linearGradient></defs></svg>