<svg width="75" height="75" fill="none" xmlns="http://www.w3.org/2000/svg"><mask id="a" style="mask-type:alpha" maskUnits="userSpaceOnUse" x="0" y="0" width="75" height="75"><path fill-rule="evenodd" clip-rule="evenodd" d="M17.05.037c-1.673.06-3.828.19-4.808.388-1.496.302-2.908.76-4.083 1.359-1.38.703-2.617 1.6-3.685 2.667a14.543 14.543 0 0 0-2.677 3.688C1.2 9.308.742 10.711.439 12.2c-.202.99-.335 3.161-.396 4.845a67.437 67.437 0 0 0-.037 1.989L0 55.962c0 .409.012 1.3.037 1.988.06 1.673.19 3.828.388 4.808.302 1.496.76 2.908 1.359 4.083.703 1.38 1.6 2.617 2.667 3.685a14.55 14.55 0 0 0 3.688 2.677c1.169.597 2.572 1.055 4.06 1.358.99.202 3.161.335 4.845.396a67.21 67.21 0 0 0 1.988.037l36.93.006c.409 0 1.3-.012 1.988-.037 1.672-.06 3.828-.19 4.808-.388 1.496-.302 2.908-.76 4.083-1.359 1.38-.703 2.617-1.6 3.685-2.667a14.552 14.552 0 0 0 2.677-3.688c.597-1.169 1.055-2.572 1.358-4.06.202-.99.335-3.161.396-4.845.025-.687.037-1.578.037-1.989L75 19.04c0-.41-.013-1.3-.037-1.989-.06-1.673-.19-3.828-.388-4.808-.302-1.496-.76-2.908-1.359-4.083a14.553 14.553 0 0 0-2.667-3.685 14.553 14.553 0 0 0-3.688-2.677C65.692 1.2 64.288.742 62.8.439c-.99-.202-3.161-.335-4.845-.396a66.627 66.627 0 0 0-1.989-.037L19.038 0c-.409 0-1.3.012-1.988.037Z" fill="#fff"/></mask><g mask="url(#a)"><path d="M17.05.036c-1.673.06-3.828.19-4.808.388-1.496.302-2.908.76-4.083 1.359-1.38.703-2.617 1.6-3.685 2.667a14.543 14.543 0 0 0-2.677 3.688C1.2 9.307.742 10.71.439 12.198c-.202.99-.335 3.161-.396 4.845a67.443 67.443 0 0 0-.037 1.989L0 55.96c0 .409.012 1.3.037 1.988.06 1.673.19 3.828.388 4.808.302 1.496.76 2.908 1.359 4.083.703 1.38 1.6 2.617 2.667 3.685a14.553 14.553 0 0 0 3.688 2.677c1.169.597 2.572 1.055 4.06 1.358.99.202 3.161.335 4.845.396a67.21 67.21 0 0 0 1.988.037l36.93.006c.409 0 1.3-.012 1.988-.037 1.672-.06 3.828-.19 4.808-.388 1.496-.302 2.908-.76 4.083-1.358a14.553 14.553 0 0 0 3.685-2.668 14.55 14.55 0 0 0 2.677-3.688c.597-1.169 1.055-2.572 1.358-4.06.202-.99.335-3.161.396-4.844.025-.688.037-1.579.037-1.99L75 19.039c0-.41-.013-1.3-.037-1.989-.06-1.672-.19-3.828-.388-4.808-.302-1.496-.76-2.908-1.359-4.083a14.553 14.553 0 0 0-2.667-3.685 14.553 14.553 0 0 0-3.688-2.677C65.692 1.199 64.288.74 62.8.438c-.99-.202-3.161-.335-4.845-.396a66.627 66.627 0 0 0-1.989-.037L19.038 0c-.409 0-1.3.012-1.988.037Z" fill="url(#b)"/><path fill-rule="evenodd" clip-rule="evenodd" d="M50.504 42.437c-.668-.335-3.952-1.95-4.565-2.173-.612-.223-1.057-.334-1.503.334-.445.669-1.725 2.173-2.115 2.619-.39.445-.78.501-1.447.167-.668-.334-2.82-1.04-5.372-3.315-1.986-1.77-3.326-3.958-3.716-4.626-.39-.668-.042-1.03.293-1.363.3-.299.668-.78 1.002-1.17.334-.39.445-.668.668-1.114.222-.446.111-.836-.056-1.17-.167-.334-1.503-3.621-2.06-4.958-.542-1.302-1.092-1.126-1.502-1.146-.39-.02-.835-.024-1.28-.024-.446 0-1.17.167-1.782.836-.612.668-2.338 2.284-2.338 5.57 0 3.288 2.394 6.463 2.728 6.909.334.445 4.71 7.19 11.411 10.083a38.44 38.44 0 0 0 3.808 1.407c1.6.508 3.057.436 4.208.264 1.283-.191 3.952-1.615 4.509-3.175.556-1.56.556-2.897.39-3.175-.168-.279-.613-.446-1.281-.78ZM38.316 59.074h-.009a22.192 22.192 0 0 1-11.31-3.096l-.811-.482-8.41 2.206 2.245-8.198-.529-.84a22.157 22.157 0 0 1-3.397-11.822c.005-12.247 9.973-22.212 22.23-22.212a22.074 22.074 0 0 1 15.71 6.515 22.077 22.077 0 0 1 6.502 15.715c-.005 12.249-9.974 22.214-22.221 22.214Zm18.91-41.12c-5.048-5.052-11.76-7.835-18.912-7.838-14.735 0-26.728 11.989-26.734 26.724a26.672 26.672 0 0 0 3.568 13.361l-3.793 13.85 14.173-3.717a26.724 26.724 0 0 0 12.776 3.253h.01c14.735 0 26.729-11.99 26.735-26.725.003-7.142-2.776-13.856-7.823-18.908Z" fill="#fff"/></g><defs><linearGradient id="b" x1="0" y1="74.999" x2="0" y2="-.001" gradientUnits="userSpaceOnUse"><stop stop-color="#25CF43"/><stop offset="1" stop-color="#61FD7D"/></linearGradient></defs></svg>