<svg width="172" height="171" viewBox="0 0 172 171" fill="none" xmlns="http://www.w3.org/2000/svg">
<path d="M92.3686 168.301C90.7197 166.653 89.8953 164.554 89.8953 162.006C89.8953 159.458 90.7197 157.359 92.3686 155.71L118.001 130.078L41.5542 53.6317L15.9221 79.2637C14.1234 81.0625 12.0248 81.9228 9.62651 81.8449C7.22819 81.7729 5.12966 80.8376 3.33092 79.0389C1.53218 77.2401 0.632812 75.1026 0.632812 72.6264C0.632812 70.1561 1.53218 68.0216 3.33092 66.2228L9.62651 59.9272L3.33092 53.6317C1.53218 51.8329 0.632812 49.7344 0.632812 47.3361C0.632812 44.9378 1.53218 42.8392 3.33092 41.0405L16.1469 28.2245L9.62651 21.704C7.82777 19.9053 6.96738 17.7678 7.04532 15.2915C7.11727 12.8212 8.05262 10.6867 9.85136 8.888C11.6501 7.08926 13.7876 6.18989 16.2639 6.18989C18.7341 6.18989 20.8686 7.08926 22.6674 8.888L28.963 15.4084L41.5542 2.81725C43.3529 1.01851 45.4514 0.119141 47.8497 0.119141C50.2481 0.119141 52.3466 1.01851 54.1453 2.81725L60.6658 9.33768L67.1862 2.81725C68.835 1.16841 70.9336 0.343984 73.4818 0.343984C76.03 0.343984 78.1285 1.16841 79.7774 2.81725C81.4262 4.4661 82.2506 6.56463 82.2506 9.11284C82.2506 11.6611 81.4262 13.7596 79.7774 15.4084L54.1453 41.0405L130.592 117.487L156.224 91.8549C158.023 90.0562 160.16 89.1568 162.636 89.1568C165.107 89.1568 167.241 90.0562 169.04 91.8549C170.839 93.6536 171.738 95.7881 171.738 98.2584C171.738 100.735 170.839 102.872 169.04 104.671L162.519 111.191L168.815 117.487C170.614 119.286 171.513 121.384 171.513 123.783C171.513 126.181 170.614 128.279 168.815 130.078L155.999 142.894L162.519 149.415C164.318 151.213 165.218 153.312 165.218 155.71C165.218 158.108 164.318 160.207 162.519 162.006C160.721 163.805 158.586 164.704 156.116 164.704C153.64 164.704 151.502 163.805 149.703 162.006L143.183 155.71L130.592 168.301C128.793 170.1 126.695 170.999 124.296 170.999C121.898 170.999 119.799 170.1 118.001 168.301L111.48 161.781L104.96 168.301C103.311 169.95 101.212 170.775 98.6641 170.775C96.1159 170.775 94.0174 169.95 92.3686 168.301Z" fill="url(#paint0_linear_850_66)"/>
<defs>
<linearGradient id="paint0_linear_850_66" x1="86.1854" y1="0.119141" x2="86.1854" y2="170.999" gradientUnits="userSpaceOnUse">
<stop stop-color="white"/>
<stop offset="0.0001" stop-color="#FFA761"/>
<stop offset="1" stop-color="#C7825B"/>
</linearGradient>
</defs>
</svg>
