<svg width="168" height="156" viewBox="0 0 168 156" fill="none" xmlns="http://www.w3.org/2000/svg">
<path d="M47.0925 89.6786L71.9577 64.8134L17.5705 10.5142C13.3531 6.29675 6.0605 7.43897 3.42462 12.8865C-2.81365 25.978 -0.529216 42.0569 10.2779 52.952L47.0925 89.6786ZM106.664 73.7755C120.107 80.0137 138.997 75.6206 152.967 61.6504C169.749 44.8686 173 20.7941 160.084 7.87829C147.256 -4.9497 123.182 -1.78663 106.312 14.9952C92.3419 28.9654 87.9487 47.8559 94.187 61.2989L14.5832 140.903C12.9404 142.546 12.0174 144.774 12.0174 147.097C12.0174 149.42 12.9404 151.649 14.5832 153.291C16.226 154.934 18.4542 155.857 20.7775 155.857C23.1009 155.857 25.329 154.934 26.9719 153.291L81.359 99.08L135.658 153.379C136.472 154.193 137.437 154.838 138.5 155.278C139.563 155.718 140.702 155.945 141.853 155.945C143.003 155.945 144.142 155.718 145.205 155.278C146.268 154.838 147.233 154.193 148.047 153.379C148.86 152.566 149.506 151.6 149.946 150.537C150.386 149.474 150.613 148.335 150.613 147.185C150.613 146.035 150.386 144.895 149.946 143.833C149.506 142.77 148.86 141.804 148.047 140.991L93.7477 86.6913L106.664 73.7755Z" fill="url(#paint0_linear_850_62)"/>
<defs>
<linearGradient id="paint0_linear_850_62" x1="84" y1="0" x2="84" y2="155.945" gradientUnits="userSpaceOnUse">
<stop stop-color="white"/>
<stop offset="0.0001" stop-color="#FFA761"/>
<stop offset="1" stop-color="#C7825B"/>
<stop offset="1" stop-color="#C7825B"/>
</linearGradient>
</defs>
</svg>
