<svg width="204" height="117" viewBox="0 0 204 117" fill="none" xmlns="http://www.w3.org/2000/svg">
<path d="M132.674 26.4114C138.627 26.4114 143.452 21.6183 143.452 15.7057C143.452 9.7931 138.627 5 132.674 5C126.722 5 121.896 9.7931 121.896 15.7057C121.896 21.6183 126.722 26.4114 132.674 26.4114Z" stroke="url(#paint0_linear_901_61)" stroke-width="9.66324" stroke-linecap="round" stroke-linejoin="round"/>
<path d="M37.3333 47.8069L80.4444 26.4111L118.167 58.5048L102 79.9005M5 109.32C8.35504 110.975 12.0324 111.888 15.7778 111.994C19.9757 112.081 24.1319 111.153 27.8874 109.289C31.643 107.425 34.8849 104.682 37.3333 101.296C39.7817 97.9105 43.0237 95.1672 46.7792 93.3034C50.5348 91.4395 54.691 90.5111 58.8889 90.5984C63.0868 90.5111 67.243 91.4395 70.9985 93.3034C74.7541 95.1672 77.9961 97.9105 80.4444 101.296C82.8928 104.682 86.1348 107.425 89.8903 109.289C93.6459 111.153 97.8021 112.081 102 111.994C106.198 112.081 110.354 111.153 114.11 109.289C117.865 107.425 121.107 104.682 123.556 101.296C126.004 97.9105 129.246 95.1672 133.001 93.3034C136.757 91.4395 140.913 90.5111 145.111 90.5984C149.309 90.5111 153.465 91.4395 157.221 93.3034C160.976 95.1672 164.218 97.9105 166.667 101.296C169.115 104.682 172.357 107.425 176.113 109.289C179.868 111.153 184.024 112.081 188.222 111.994C191.968 111.888 195.645 110.975 199 109.32" stroke="url(#paint1_linear_901_61)" stroke-width="9.66324" stroke-linecap="round" stroke-linejoin="round"/>
<defs>
<linearGradient id="paint0_linear_901_61" x1="130.455" y1="-24.6465" x2="161.279" y2="44.6584" gradientUnits="userSpaceOnUse">
<stop stop-color="#FFA761"/>
<stop offset="1" stop-color="#C7825B"/>
</linearGradient>
<linearGradient id="paint1_linear_901_61" x1="82.0294" y1="-92.0963" x2="145.118" y2="227.277" gradientUnits="userSpaceOnUse">
<stop stop-color="#FFA761"/>
<stop offset="1" stop-color="#C7825B"/>
</linearGradient>
</defs>
</svg>
