<svg width="175" height="159" viewBox="0 0 175 159" fill="none" xmlns="http://www.w3.org/2000/svg">
<path d="M68.4111 158.129H30.479C27.7922 158.129 25.5384 157.219 23.7176 155.398C21.9032 153.584 20.996 151.333 20.996 148.646V82.2652H4.87486C2.66216 82.2652 1.16068 81.2379 0.370431 79.1832C-0.419821 77.1285 0.0543287 75.39 1.79288 73.9675L80.9761 2.60783C82.7146 0.869275 84.8483 0 87.3771 0C89.9059 0 92.0396 0.869275 93.7782 2.60783L125.309 31.0569V15.8841C125.309 13.1972 126.22 10.9434 128.04 9.12266C129.855 7.30825 132.105 6.40104 134.792 6.40104H144.275C146.962 6.40104 149.213 7.30825 151.027 9.12266C152.848 10.9434 153.758 13.1972 153.758 15.8841V56.661L172.961 73.9675C174.7 75.39 175.174 77.1285 174.384 79.1832C173.594 81.2379 172.092 82.2652 169.879 82.2652H153.758V148.646C153.758 151.333 152.848 153.584 151.027 155.398C149.213 157.219 146.962 158.129 144.275 158.129H106.343V110.714C106.343 108.027 105.436 105.774 103.622 103.953C101.801 102.138 99.547 101.231 96.8601 101.231H77.8941C75.2072 101.231 72.9566 102.138 71.1422 103.953C69.3215 105.774 68.4111 108.027 68.4111 110.714V158.129ZM68.4111 68.4L106.343 68.4C106.343 63.3424 104.447 54.3282 100.653 51.085C96.8601 47.8481 92.4347 46.2297 87.3771 46.2297C82.3195 46.2297 77.8941 47.8481 74.1009 51.085C70.3077 54.3282 68.4111 63.3424 68.4111 68.4Z" fill="url(#paint0_linear_850_64)"/>
<defs>
<linearGradient id="paint0_linear_850_64" x1="87.3771" y1="0" x2="87.3771" y2="158.129" gradientUnits="userSpaceOnUse">
<stop stop-color="#FFA761"/>
<stop offset="1" stop-color="#C7825B"/>
</linearGradient>
</defs>
</svg>
