<svg width="155" height="163" viewBox="0 0 155 163" fill="none" xmlns="http://www.w3.org/2000/svg">
<path d="M16.4997 122.19C20.9729 122.19 24.5991 118.564 24.5991 114.091C24.5991 109.618 20.9729 105.992 16.4997 105.992C12.0266 105.992 8.40039 109.618 8.40039 114.091C8.40039 118.564 12.0266 122.19 16.4997 122.19Z" stroke="#FFA761" stroke-width="16.1987" stroke-linecap="round" stroke-linejoin="round"/>
<path d="M56.9958 24.9985C61.469 24.9985 65.0952 21.3723 65.0952 16.8991C65.0952 12.426 61.469 8.7998 56.9958 8.7998C52.5227 8.7998 48.8965 12.426 48.8965 16.8991C48.8965 21.3723 52.5227 24.9985 56.9958 24.9985Z" stroke="#FFA761" stroke-width="16.1987" stroke-linecap="round" stroke-linejoin="round"/>
<path d="M16.5 154.588L48.8974 138.389V114.091H146.09M73.1954 138.389H146.09M48.8974 89.7933L73.1954 73.5946L81.2948 41.1973C105.593 49.2966 105.593 73.5946 105.593 89.7933" stroke="#FFA761" stroke-width="16.1987" stroke-linecap="round" stroke-linejoin="round"/>
</svg>
