<svg width="169" height="168" viewBox="0 0 169 168" fill="none" xmlns="http://www.w3.org/2000/svg">
<path d="M108.088 112.893C105.066 108.277 102.632 103.996 100.366 100.051C90.5453 83.1802 82.5714 71.7649 59.1534 68.2396V29.3775C59.1534 13.1779 45.9755 0 29.7759 0C13.5763 0 0.398438 13.1779 0.398438 29.3775V167.871H17.1856V151.084H42.3662V167.871H59.1534V85.2786C73.926 88.1324 78.3746 95.6026 85.7609 108.445C88.1951 112.726 90.881 117.258 94.1545 122.21C111.825 148.716 129.644 165.732 161.896 167.683C165.41 167.896 168.27 165.018 168.27 161.497V157.458C168.27 153.938 165.403 151.117 161.893 150.854C136.932 148.984 123.37 135.778 108.088 112.893ZM29.7759 16.7871C36.7426 16.7871 42.3662 22.4108 42.3662 29.3775V67.1485H17.1856V29.3775C17.1856 22.4108 22.8092 16.7871 29.7759 16.7871ZM17.1856 134.297V117.51H42.3662V134.297H17.1856ZM42.3662 100.723H17.1856V83.9356H42.3662V100.723Z" fill="url(#paint0_linear_850_68)"/>
<defs>
<linearGradient id="paint0_linear_850_68" x1="84.334" y1="0" x2="84.334" y2="167.871" gradientUnits="userSpaceOnUse">
<stop stop-color="#FFA761"/>
<stop offset="1" stop-color="#C7825B"/>
</linearGradient>
</defs>
</svg>
