<svg width="84" height="84" viewBox="0 0 84 84" fill="none" xmlns="http://www.w3.org/2000/svg">
<rect width="84" height="84" rx="42" fill="white"/>
<path d="M61.4188 42.4592C61.4188 41.0551 61.3087 39.6509 61.0885 38.2754H42.4018V46.2132H53.1075C52.6671 48.7636 51.2361 51.0561 49.1445 52.4889V57.647H55.5293C59.2722 54.0649 61.4188 48.7636 61.4188 42.4592Z" fill="#4285F4"/>
<path d="M42.4026 62.6333C47.7417 62.6333 52.2543 60.7991 55.5293 57.647L49.1445 52.4889C47.3556 53.7497 45.0721 54.4663 42.4026 54.4663C37.2287 54.4663 32.8529 50.827 31.2842 45.9555H24.7067V51.2855C28.0642 58.2489 34.9169 62.6333 42.4026 62.6333Z" fill="#34A853"/>
<path d="M31.2842 45.9555C30.4584 43.4051 30.4592 40.6253 31.2849 38.0463V32.7449H24.7064C21.8713 38.5621 21.8713 45.4395 24.7064 51.2567L31.2842 45.9555Z" fill="#FBBC04"/>
<path d="M42.4026 29.5354C45.2373 29.4781 47.9618 30.5957 49.9984 32.6303L55.6677 26.7271C52.0624 23.2311 47.3288 21.3111 42.4026 21.3684C34.9169 21.3684 28.064 25.7815 24.7064 32.7449L31.2842 38.0749C32.8529 33.1747 37.2287 29.5354 42.4026 29.5354Z" fill="#EA4335"/>
</svg>
